<svg width="70" height="63" viewBox="0 0 70 63" fill="none" xmlns="http://www.w3.org/2000/svg">
<path d="M12.2558 11.5257C13.8646 4.76867 19.902 0 26.8479 0H43.1521C50.098 0 56.1354 4.76867 57.7442 11.5257L63.9981 37.7922C66.6691 49.0104 56.2099 58.9212 45.1516 55.6505L38.816 53.7766C36.0007 52.9439 33.0029 52.9557 30.1942 53.8105L25.0162 55.3864C13.9338 58.7593 3.37352 48.8312 6.05668 37.562L12.2558 11.5257Z" fill="black"/>
<path d="M25.7344 8.4248C24.2004 8.85312 23.0947 10.0385 22.4871 11.9111C22.1285 12.9969 22.0388 14.9193 22.2978 16.1545C22.6166 17.7582 23.1943 19.073 24.1008 20.2385C24.7383 21.0752 25.4754 21.6828 26.4217 22.151C27.2584 22.5693 27.2683 22.5693 28.364 22.5693C29.4099 22.5693 29.5095 22.5494 30.1271 22.2506C31.3125 21.6629 32.189 20.5174 32.707 18.8838C33.0357 17.8379 33.0855 15.9951 32.8265 14.75C32.0795 11.1441 29.6789 8.52441 26.9496 8.32519C26.5113 8.29531 26.0929 8.32519 25.7344 8.4248Z" fill="#F5C92B"/>
<path d="M41.6719 8.34513C41.5324 8.36505 41.1539 8.47462 40.8252 8.59415C38.7234 9.33126 37.04 11.443 36.273 14.3018C35.9742 15.3775 35.9543 17.7582 36.2232 18.7344C36.7512 20.617 37.9664 22.0315 39.4605 22.4797C40.1379 22.6889 41.3033 22.669 41.9906 22.4299C44.5406 21.5533 46.5228 18.6049 46.8416 15.2381C47.001 13.5846 46.6623 11.7418 45.985 10.5963C45.0387 8.97267 43.3254 8.07618 41.6719 8.34513Z" fill="#F5C92B"/>
<path d="M16.4408 19.84C15.8332 19.9795 15.1359 20.3879 14.6379 20.8859C12.7851 22.7287 12.825 26.474 14.7275 29.4125C15.6838 30.8867 17.148 32.092 18.4728 32.4904C19.5187 32.8092 20.6842 32.7395 21.5707 32.3012C23.1844 31.5043 24.031 29.7313 23.9015 27.4004C23.8418 26.1254 23.5828 25.1492 22.9951 23.9639C21.5508 21.0354 18.7816 19.2922 16.4408 19.84Z" fill="#F5C92B"/>
<path d="M50.7363 19.83C49.9095 19.9994 48.7142 20.6767 47.9074 21.4337C44.8294 24.3124 44.1222 29.263 46.463 31.6039C47.1703 32.3111 47.8874 32.6199 48.9632 32.6597C50.4474 32.7294 51.6726 32.2115 52.9775 30.9763C54.1429 29.8707 55.0294 28.3666 55.4777 26.7529C55.7167 25.8664 55.7765 24.0236 55.5773 23.1869C55.0992 21.1648 53.7146 19.8699 51.9117 19.7802C51.5132 19.7603 50.9853 19.7802 50.7363 19.83Z" fill="#F5C92B"/>
<path d="M33.6234 24.3224C31.0933 24.6213 29.1907 26.1353 27.6966 29.0439C26.8898 30.6078 25.7941 31.7134 24.4792 32.3011C22.9353 32.9785 21.5407 34.3033 20.8036 35.7974C20.1761 37.0824 20.0167 37.7697 20.0167 39.2041C20.0167 40.6484 20.1761 41.3257 20.8236 42.6406C21.212 43.4275 21.4212 43.7263 22.1384 44.4336C23.1046 45.3898 23.8019 45.8381 24.9374 46.2365C26.9296 46.9437 28.7425 46.8341 30.9837 45.8779C32.5575 45.2006 33.0656 45.091 34.4999 45.091C35.9443 45.091 36.522 45.2205 38.046 45.8879C39.4206 46.4855 40.1976 46.6548 41.5224 46.6548C42.8771 46.6548 43.6939 46.4656 44.9589 45.848C45.7657 45.4595 46.0447 45.2504 46.8017 44.4933C47.7978 43.4972 48.3357 42.6007 48.754 41.2461C48.9532 40.6185 48.9931 40.2898 48.9831 39.2041C48.9831 38.457 48.9333 37.7199 48.8536 37.4609C48.1564 35.0205 46.9013 33.5064 44.5605 32.2812C43.0265 31.4843 42.4089 30.8269 41.5323 29.0937C41.1538 28.3566 40.6259 27.4502 40.357 27.0716C39.1915 25.4879 37.5281 24.5416 35.496 24.3125C35.0279 24.2627 34.5796 24.2228 34.4999 24.2228C34.4202 24.2328 34.0218 24.2726 33.6234 24.3224Z" fill="#F5C92B"/>
</svg>
